<mxfile host="app.diagrams.net" agent="Mozilla/5.0 (Windows NT 10.0; Win64; x64) AppleWebKit/537.36 (KHTML, like Gecko) Chrome/126.0.0.0 YaBrowser/24.7.0.0 Safari/537.36" version="24.7.7">
  <diagram name="Page-1" id="b520641d-4fe3-3701-9064-5fc419738815">
    <mxGraphModel dx="1272" dy="804" grid="1" gridSize="10" guides="1" tooltips="1" connect="1" arrows="1" fold="1" page="1" pageScale="1" pageWidth="1100" pageHeight="850" background="none" math="0" shadow="0">
      <root>
        <mxCell id="0" />
        <mxCell id="1" parent="0" />
        <mxCell id="5imH1k4Vq9nAhO7qKi-u-30" value="Clients" style="swimlane;fontStyle=0;childLayout=stackLayout;horizontal=1;startSize=30;horizontalStack=0;resizeParent=1;resizeParentMax=0;resizeLast=0;collapsible=1;marginBottom=0;whiteSpace=wrap;html=1;" parent="1" vertex="1">
          <mxGeometry x="100" y="310" width="240" height="240" as="geometry" />
        </mxCell>
        <mxCell id="5imH1k4Vq9nAhO7qKi-u-35" value="" style="group" parent="5imH1k4Vq9nAhO7qKi-u-30" vertex="1" connectable="0">
          <mxGeometry y="30" width="240" height="30" as="geometry" />
        </mxCell>
        <mxCell id="5imH1k4Vq9nAhO7qKi-u-21" value="id" style="text;strokeColor=#23445d;fillColor=#bac8d3;align=left;verticalAlign=middle;spacingLeft=4;spacingRight=4;overflow=hidden;points=[[0,0.5],[1,0.5]];portConstraint=eastwest;rotatable=0;whiteSpace=wrap;html=1;" parent="5imH1k4Vq9nAhO7qKi-u-35" vertex="1">
          <mxGeometry width="160" height="30" as="geometry" />
        </mxCell>
        <mxCell id="5imH1k4Vq9nAhO7qKi-u-34" value="&lt;span style=&quot;box-sizing: border-box;&quot;&gt;&lt;font style=&quot;font-size: 12px;&quot; face=&quot;Helvetica&quot;&gt;INTEGER&lt;/font&gt;&lt;/span&gt;" style="text;strokeColor=#23445d;fillColor=#bac8d3;align=left;verticalAlign=middle;spacingLeft=4;spacingRight=4;overflow=hidden;points=[[0,0.5],[1,0.5]];portConstraint=eastwest;rotatable=0;whiteSpace=wrap;html=1;" parent="5imH1k4Vq9nAhO7qKi-u-35" vertex="1">
          <mxGeometry x="160" width="79.82" height="30" as="geometry" />
        </mxCell>
        <mxCell id="5imH1k4Vq9nAhO7qKi-u-40" value="" style="group;fillColor=none;strokeColor=#10739e;" parent="5imH1k4Vq9nAhO7qKi-u-30" vertex="1" connectable="0">
          <mxGeometry y="60" width="240" height="180" as="geometry" />
        </mxCell>
        <mxCell id="5imH1k4Vq9nAhO7qKi-u-41" value="name_given" style="text;strokeColor=#23445d;fillColor=none;align=left;verticalAlign=middle;spacingLeft=4;spacingRight=4;overflow=hidden;points=[[0,0.5],[1,0.5]];portConstraint=eastwest;rotatable=0;whiteSpace=wrap;html=1;" parent="5imH1k4Vq9nAhO7qKi-u-40" vertex="1">
          <mxGeometry width="160" height="30" as="geometry" />
        </mxCell>
        <mxCell id="5imH1k4Vq9nAhO7qKi-u-42" value="TEXT" style="text;strokeColor=#23445d;fillColor=none;align=left;verticalAlign=middle;spacingLeft=4;spacingRight=4;overflow=hidden;points=[[0,0.5],[1,0.5]];portConstraint=eastwest;rotatable=0;whiteSpace=wrap;html=1;" parent="5imH1k4Vq9nAhO7qKi-u-40" vertex="1">
          <mxGeometry x="160" width="79.82" height="30" as="geometry" />
        </mxCell>
        <mxCell id="5imH1k4Vq9nAhO7qKi-u-43" value="" style="group" parent="5imH1k4Vq9nAhO7qKi-u-40" vertex="1" connectable="0">
          <mxGeometry y="30" width="240" height="150" as="geometry" />
        </mxCell>
        <mxCell id="5imH1k4Vq9nAhO7qKi-u-44" value="name_middle" style="text;strokeColor=#23445d;fillColor=none;align=left;verticalAlign=middle;spacingLeft=4;spacingRight=4;overflow=hidden;points=[[0,0.5],[1,0.5]];portConstraint=eastwest;rotatable=0;whiteSpace=wrap;html=1;" parent="5imH1k4Vq9nAhO7qKi-u-43" vertex="1">
          <mxGeometry width="160" height="30" as="geometry" />
        </mxCell>
        <mxCell id="5imH1k4Vq9nAhO7qKi-u-45" value="TEXT" style="text;strokeColor=#23445d;fillColor=none;align=left;verticalAlign=middle;spacingLeft=4;spacingRight=4;overflow=hidden;points=[[0,0.5],[1,0.5]];portConstraint=eastwest;rotatable=0;whiteSpace=wrap;html=1;" parent="5imH1k4Vq9nAhO7qKi-u-43" vertex="1">
          <mxGeometry x="160" width="79.82" height="30" as="geometry" />
        </mxCell>
        <mxCell id="4gp_iH8_tthGyEwq_ENl-10" value="" style="group;fillColor=none;strokeColor=#10739e;" vertex="1" connectable="0" parent="5imH1k4Vq9nAhO7qKi-u-43">
          <mxGeometry y="30" width="240" height="120" as="geometry" />
        </mxCell>
        <mxCell id="4gp_iH8_tthGyEwq_ENl-11" value="name_given" style="text;strokeColor=#23445d;fillColor=none;align=left;verticalAlign=middle;spacingLeft=4;spacingRight=4;overflow=hidden;points=[[0,0.5],[1,0.5]];portConstraint=eastwest;rotatable=0;whiteSpace=wrap;html=1;" vertex="1" parent="4gp_iH8_tthGyEwq_ENl-10">
          <mxGeometry width="160" height="30" as="geometry" />
        </mxCell>
        <mxCell id="4gp_iH8_tthGyEwq_ENl-12" value="TEXT" style="text;strokeColor=#23445d;fillColor=none;align=left;verticalAlign=middle;spacingLeft=4;spacingRight=4;overflow=hidden;points=[[0,0.5],[1,0.5]];portConstraint=eastwest;rotatable=0;whiteSpace=wrap;html=1;" vertex="1" parent="4gp_iH8_tthGyEwq_ENl-10">
          <mxGeometry x="160" width="79.82" height="30" as="geometry" />
        </mxCell>
        <mxCell id="4gp_iH8_tthGyEwq_ENl-13" value="" style="group" vertex="1" connectable="0" parent="4gp_iH8_tthGyEwq_ENl-10">
          <mxGeometry y="30" width="240" height="90" as="geometry" />
        </mxCell>
        <mxCell id="4gp_iH8_tthGyEwq_ENl-14" value="name_last" style="text;strokeColor=#23445d;fillColor=none;align=left;verticalAlign=middle;spacingLeft=4;spacingRight=4;overflow=hidden;points=[[0,0.5],[1,0.5]];portConstraint=eastwest;rotatable=0;whiteSpace=wrap;html=1;" vertex="1" parent="4gp_iH8_tthGyEwq_ENl-13">
          <mxGeometry width="160" height="30" as="geometry" />
        </mxCell>
        <mxCell id="4gp_iH8_tthGyEwq_ENl-15" value="TEXT" style="text;strokeColor=#23445d;fillColor=none;align=left;verticalAlign=middle;spacingLeft=4;spacingRight=4;overflow=hidden;points=[[0,0.5],[1,0.5]];portConstraint=eastwest;rotatable=0;whiteSpace=wrap;html=1;" vertex="1" parent="4gp_iH8_tthGyEwq_ENl-13">
          <mxGeometry x="160" width="79.82" height="30" as="geometry" />
        </mxCell>
        <mxCell id="4gp_iH8_tthGyEwq_ENl-16" value="" style="group;fillColor=none;strokeColor=#10739e;" vertex="1" connectable="0" parent="4gp_iH8_tthGyEwq_ENl-13">
          <mxGeometry x="-0.18000000000000682" y="30" width="240" height="60" as="geometry" />
        </mxCell>
        <mxCell id="4gp_iH8_tthGyEwq_ENl-17" value="birth_data" style="text;strokeColor=#23445d;fillColor=none;align=left;verticalAlign=middle;spacingLeft=4;spacingRight=4;overflow=hidden;points=[[0,0.5],[1,0.5]];portConstraint=eastwest;rotatable=0;whiteSpace=wrap;html=1;" vertex="1" parent="4gp_iH8_tthGyEwq_ENl-16">
          <mxGeometry width="160" height="30" as="geometry" />
        </mxCell>
        <mxCell id="4gp_iH8_tthGyEwq_ENl-18" value="TEXT" style="text;strokeColor=#23445d;fillColor=none;align=left;verticalAlign=middle;spacingLeft=4;spacingRight=4;overflow=hidden;points=[[0,0.5],[1,0.5]];portConstraint=eastwest;rotatable=0;whiteSpace=wrap;html=1;" vertex="1" parent="4gp_iH8_tthGyEwq_ENl-16">
          <mxGeometry x="160" width="79.82" height="30" as="geometry" />
        </mxCell>
        <mxCell id="4gp_iH8_tthGyEwq_ENl-19" value="" style="group" vertex="1" connectable="0" parent="4gp_iH8_tthGyEwq_ENl-16">
          <mxGeometry y="30" width="240" height="30" as="geometry" />
        </mxCell>
        <mxCell id="4gp_iH8_tthGyEwq_ENl-20" value="comment" style="text;strokeColor=#23445d;fillColor=none;align=left;verticalAlign=middle;spacingLeft=4;spacingRight=4;overflow=hidden;points=[[0,0.5],[1,0.5]];portConstraint=eastwest;rotatable=0;whiteSpace=wrap;html=1;" vertex="1" parent="4gp_iH8_tthGyEwq_ENl-19">
          <mxGeometry width="160" height="30" as="geometry" />
        </mxCell>
        <mxCell id="4gp_iH8_tthGyEwq_ENl-21" value="TEXT" style="text;strokeColor=#23445d;fillColor=none;align=left;verticalAlign=middle;spacingLeft=4;spacingRight=4;overflow=hidden;points=[[0,0.5],[1,0.5]];portConstraint=eastwest;rotatable=0;whiteSpace=wrap;html=1;" vertex="1" parent="4gp_iH8_tthGyEwq_ENl-19">
          <mxGeometry x="160" width="79.82" height="30" as="geometry" />
        </mxCell>
        <mxCell id="4gp_iH8_tthGyEwq_ENl-44" value="TestQueue" style="swimlane;fontStyle=0;childLayout=stackLayout;horizontal=1;startSize=30;horizontalStack=0;resizeParent=1;resizeParentMax=0;resizeLast=0;collapsible=1;marginBottom=0;whiteSpace=wrap;html=1;" vertex="1" parent="1">
          <mxGeometry x="490" y="150" width="240" height="180" as="geometry" />
        </mxCell>
        <mxCell id="4gp_iH8_tthGyEwq_ENl-45" value="" style="group" vertex="1" connectable="0" parent="4gp_iH8_tthGyEwq_ENl-44">
          <mxGeometry y="30" width="240" height="150" as="geometry" />
        </mxCell>
        <mxCell id="4gp_iH8_tthGyEwq_ENl-46" value="id" style="text;strokeColor=#23445d;fillColor=#bac8d3;align=left;verticalAlign=middle;spacingLeft=4;spacingRight=4;overflow=hidden;points=[[0,0.5],[1,0.5]];portConstraint=eastwest;rotatable=0;whiteSpace=wrap;html=1;" vertex="1" parent="4gp_iH8_tthGyEwq_ENl-45">
          <mxGeometry width="160" height="30" as="geometry" />
        </mxCell>
        <mxCell id="4gp_iH8_tthGyEwq_ENl-47" value="&lt;span style=&quot;box-sizing: border-box;&quot;&gt;&lt;font style=&quot;font-size: 12px;&quot; face=&quot;Helvetica&quot;&gt;INTEGER&lt;/font&gt;&lt;/span&gt;" style="text;strokeColor=#23445d;fillColor=#bac8d3;align=left;verticalAlign=middle;spacingLeft=4;spacingRight=4;overflow=hidden;points=[[0,0.5],[1,0.5]];portConstraint=eastwest;rotatable=0;whiteSpace=wrap;html=1;" vertex="1" parent="4gp_iH8_tthGyEwq_ENl-45">
          <mxGeometry x="160" width="79.82" height="30" as="geometry" />
        </mxCell>
        <mxCell id="4gp_iH8_tthGyEwq_ENl-66" value="" style="group" vertex="1" connectable="0" parent="4gp_iH8_tthGyEwq_ENl-45">
          <mxGeometry y="30" width="239.81999999999994" height="60" as="geometry" />
        </mxCell>
        <mxCell id="4gp_iH8_tthGyEwq_ENl-49" value="client_id" style="text;strokeColor=#23445d;fillColor=#E1D5E7;align=left;verticalAlign=middle;spacingLeft=4;spacingRight=4;overflow=hidden;points=[[0,0.5],[1,0.5]];portConstraint=eastwest;rotatable=0;whiteSpace=wrap;html=1;" vertex="1" parent="4gp_iH8_tthGyEwq_ENl-66">
          <mxGeometry width="160" height="30" as="geometry" />
        </mxCell>
        <mxCell id="4gp_iH8_tthGyEwq_ENl-50" value="INTEGER" style="text;strokeColor=#23445D;fillColor=#E1D5E7;align=left;verticalAlign=middle;spacingLeft=4;spacingRight=4;overflow=hidden;points=[[0,0.5],[1,0.5]];portConstraint=eastwest;rotatable=0;whiteSpace=wrap;html=1;" vertex="1" parent="4gp_iH8_tthGyEwq_ENl-66">
          <mxGeometry x="160" width="79.82" height="30" as="geometry" />
        </mxCell>
        <mxCell id="4gp_iH8_tthGyEwq_ENl-73" value="" style="group" vertex="1" connectable="0" parent="4gp_iH8_tthGyEwq_ENl-66">
          <mxGeometry y="30" width="239.81999999999994" height="30" as="geometry" />
        </mxCell>
        <mxCell id="4gp_iH8_tthGyEwq_ENl-74" value="test_id" style="text;strokeColor=#23445d;fillColor=none;align=left;verticalAlign=middle;spacingLeft=4;spacingRight=4;overflow=hidden;points=[[0,0.5],[1,0.5]];portConstraint=eastwest;rotatable=0;whiteSpace=wrap;html=1;" vertex="1" parent="4gp_iH8_tthGyEwq_ENl-73">
          <mxGeometry width="160" height="30" as="geometry" />
        </mxCell>
        <mxCell id="4gp_iH8_tthGyEwq_ENl-75" value="INTEGER" style="text;strokeColor=#23445d;fillColor=none;align=left;verticalAlign=middle;spacingLeft=4;spacingRight=4;overflow=hidden;points=[[0,0.5],[1,0.5]];portConstraint=eastwest;rotatable=0;whiteSpace=wrap;html=1;" vertex="1" parent="4gp_iH8_tthGyEwq_ENl-73">
          <mxGeometry x="160" width="79.82" height="30" as="geometry" />
        </mxCell>
        <mxCell id="4gp_iH8_tthGyEwq_ENl-76" value="" style="group" vertex="1" connectable="0" parent="4gp_iH8_tthGyEwq_ENl-45">
          <mxGeometry y="90" width="239.81999999999994" height="60" as="geometry" />
        </mxCell>
        <mxCell id="4gp_iH8_tthGyEwq_ENl-77" value="priority" style="text;strokeColor=#23445d;fillColor=none;align=left;verticalAlign=middle;spacingLeft=4;spacingRight=4;overflow=hidden;points=[[0,0.5],[1,0.5]];portConstraint=eastwest;rotatable=0;whiteSpace=wrap;html=1;" vertex="1" parent="4gp_iH8_tthGyEwq_ENl-76">
          <mxGeometry width="160" height="30" as="geometry" />
        </mxCell>
        <mxCell id="4gp_iH8_tthGyEwq_ENl-78" value="INTEGER" style="text;strokeColor=#23445d;fillColor=none;align=left;verticalAlign=middle;spacingLeft=4;spacingRight=4;overflow=hidden;points=[[0,0.5],[1,0.5]];portConstraint=eastwest;rotatable=0;whiteSpace=wrap;html=1;" vertex="1" parent="4gp_iH8_tthGyEwq_ENl-76">
          <mxGeometry x="160" width="79.82" height="30" as="geometry" />
        </mxCell>
        <mxCell id="4gp_iH8_tthGyEwq_ENl-79" value="" style="group" vertex="1" connectable="0" parent="4gp_iH8_tthGyEwq_ENl-76">
          <mxGeometry y="30" width="239.81999999999994" height="30" as="geometry" />
        </mxCell>
        <mxCell id="4gp_iH8_tthGyEwq_ENl-80" value="date" style="text;strokeColor=#23445d;fillColor=none;align=left;verticalAlign=middle;spacingLeft=4;spacingRight=4;overflow=hidden;points=[[0,0.5],[1,0.5]];portConstraint=eastwest;rotatable=0;whiteSpace=wrap;html=1;" vertex="1" parent="4gp_iH8_tthGyEwq_ENl-79">
          <mxGeometry width="160" height="30" as="geometry" />
        </mxCell>
        <mxCell id="4gp_iH8_tthGyEwq_ENl-81" value="TEXT" style="text;strokeColor=#23445d;fillColor=none;align=left;verticalAlign=middle;spacingLeft=4;spacingRight=4;overflow=hidden;points=[[0,0.5],[1,0.5]];portConstraint=eastwest;rotatable=0;whiteSpace=wrap;html=1;" vertex="1" parent="4gp_iH8_tthGyEwq_ENl-79">
          <mxGeometry x="160" width="79.82" height="30" as="geometry" />
        </mxCell>
        <mxCell id="4gp_iH8_tthGyEwq_ENl-88" value="Tests" style="swimlane;fontStyle=0;childLayout=stackLayout;horizontal=1;startSize=30;horizontalStack=0;resizeParent=1;resizeParentMax=0;resizeLast=0;collapsible=1;marginBottom=0;whiteSpace=wrap;html=1;" vertex="1" parent="1">
          <mxGeometry x="830" y="320" width="240" height="120" as="geometry" />
        </mxCell>
        <mxCell id="4gp_iH8_tthGyEwq_ENl-126" value="" style="group" vertex="1" connectable="0" parent="4gp_iH8_tthGyEwq_ENl-88">
          <mxGeometry y="30" width="240" height="90" as="geometry" />
        </mxCell>
        <mxCell id="4gp_iH8_tthGyEwq_ENl-90" value="id" style="text;strokeColor=#23445d;fillColor=#bac8d3;align=left;verticalAlign=middle;spacingLeft=4;spacingRight=4;overflow=hidden;points=[[0,0.5],[1,0.5]];portConstraint=eastwest;rotatable=0;whiteSpace=wrap;html=1;" vertex="1" parent="4gp_iH8_tthGyEwq_ENl-126">
          <mxGeometry width="160" height="30" as="geometry" />
        </mxCell>
        <mxCell id="4gp_iH8_tthGyEwq_ENl-91" value="&lt;span style=&quot;box-sizing: border-box;&quot;&gt;&lt;font style=&quot;font-size: 12px;&quot; face=&quot;Helvetica&quot;&gt;INTEGER&lt;/font&gt;&lt;/span&gt;" style="text;strokeColor=#23445d;fillColor=#bac8d3;align=left;verticalAlign=middle;spacingLeft=4;spacingRight=4;overflow=hidden;points=[[0,0.5],[1,0.5]];portConstraint=eastwest;rotatable=0;whiteSpace=wrap;html=1;" vertex="1" parent="4gp_iH8_tthGyEwq_ENl-126">
          <mxGeometry x="160" width="79.82" height="30" as="geometry" />
        </mxCell>
        <mxCell id="4gp_iH8_tthGyEwq_ENl-131" value="" style="group" vertex="1" connectable="0" parent="4gp_iH8_tthGyEwq_ENl-126">
          <mxGeometry y="30" width="239.81999999999994" height="60" as="geometry" />
        </mxCell>
        <mxCell id="4gp_iH8_tthGyEwq_ENl-132" value="title" style="text;strokeColor=#23445d;fillColor=none;align=left;verticalAlign=middle;spacingLeft=4;spacingRight=4;overflow=hidden;points=[[0,0.5],[1,0.5]];portConstraint=eastwest;rotatable=0;whiteSpace=wrap;html=1;" vertex="1" parent="4gp_iH8_tthGyEwq_ENl-131">
          <mxGeometry width="160" height="30" as="geometry" />
        </mxCell>
        <mxCell id="4gp_iH8_tthGyEwq_ENl-133" value="TEXT" style="text;strokeColor=#23445d;fillColor=none;align=left;verticalAlign=middle;spacingLeft=4;spacingRight=4;overflow=hidden;points=[[0,0.5],[1,0.5]];portConstraint=eastwest;rotatable=0;whiteSpace=wrap;html=1;" vertex="1" parent="4gp_iH8_tthGyEwq_ENl-131">
          <mxGeometry x="160" width="79.82" height="30" as="geometry" />
        </mxCell>
        <mxCell id="4gp_iH8_tthGyEwq_ENl-134" value="" style="group" vertex="1" connectable="0" parent="4gp_iH8_tthGyEwq_ENl-131">
          <mxGeometry y="30" width="239.81999999999994" height="30" as="geometry" />
        </mxCell>
        <mxCell id="4gp_iH8_tthGyEwq_ENl-135" value="description" style="text;strokeColor=#23445d;fillColor=none;align=left;verticalAlign=middle;spacingLeft=4;spacingRight=4;overflow=hidden;points=[[0,0.5],[1,0.5]];portConstraint=eastwest;rotatable=0;whiteSpace=wrap;html=1;" vertex="1" parent="4gp_iH8_tthGyEwq_ENl-134">
          <mxGeometry width="160" height="30" as="geometry" />
        </mxCell>
        <mxCell id="4gp_iH8_tthGyEwq_ENl-136" value="TEXT" style="text;strokeColor=#23445d;fillColor=none;align=left;verticalAlign=middle;spacingLeft=4;spacingRight=4;overflow=hidden;points=[[0,0.5],[1,0.5]];portConstraint=eastwest;rotatable=0;whiteSpace=wrap;html=1;" vertex="1" parent="4gp_iH8_tthGyEwq_ENl-134">
          <mxGeometry x="160" width="79.82" height="30" as="geometry" />
        </mxCell>
        <mxCell id="4gp_iH8_tthGyEwq_ENl-127" value="Template" style="swimlane;fontStyle=0;childLayout=stackLayout;horizontal=1;startSize=30;horizontalStack=0;resizeParent=1;resizeParentMax=0;resizeLast=0;collapsible=1;marginBottom=0;whiteSpace=wrap;html=1;" vertex="1" parent="1">
          <mxGeometry x="820" y="1450" width="240" height="60" as="geometry" />
        </mxCell>
        <mxCell id="4gp_iH8_tthGyEwq_ENl-128" value="" style="group" vertex="1" connectable="0" parent="4gp_iH8_tthGyEwq_ENl-127">
          <mxGeometry y="30" width="240" height="30" as="geometry" />
        </mxCell>
        <mxCell id="4gp_iH8_tthGyEwq_ENl-129" value="primary_key" style="text;strokeColor=#23445d;fillColor=#bac8d3;align=left;verticalAlign=middle;spacingLeft=4;spacingRight=4;overflow=hidden;points=[[0,0.5],[1,0.5]];portConstraint=eastwest;rotatable=0;whiteSpace=wrap;html=1;" vertex="1" parent="4gp_iH8_tthGyEwq_ENl-128">
          <mxGeometry width="160" height="30" as="geometry" />
        </mxCell>
        <mxCell id="4gp_iH8_tthGyEwq_ENl-130" value="&lt;span style=&quot;box-sizing: border-box;&quot;&gt;&lt;font style=&quot;font-size: 12px;&quot; face=&quot;Helvetica&quot;&gt;INTEGER&lt;/font&gt;&lt;/span&gt;" style="text;strokeColor=#23445d;fillColor=#bac8d3;align=left;verticalAlign=middle;spacingLeft=4;spacingRight=4;overflow=hidden;points=[[0,0.5],[1,0.5]];portConstraint=eastwest;rotatable=0;whiteSpace=wrap;html=1;" vertex="1" parent="4gp_iH8_tthGyEwq_ENl-128">
          <mxGeometry x="160" width="79.82" height="30" as="geometry" />
        </mxCell>
        <mxCell id="4gp_iH8_tthGyEwq_ENl-137" value="Results" style="swimlane;fontStyle=0;childLayout=stackLayout;horizontal=1;startSize=30;horizontalStack=0;resizeParent=1;resizeParentMax=0;resizeLast=0;collapsible=1;marginBottom=0;whiteSpace=wrap;html=1;" vertex="1" parent="1">
          <mxGeometry x="450" y="425" width="240" height="180" as="geometry" />
        </mxCell>
        <mxCell id="4gp_iH8_tthGyEwq_ENl-138" value="" style="group" vertex="1" connectable="0" parent="4gp_iH8_tthGyEwq_ENl-137">
          <mxGeometry y="30" width="240" height="150" as="geometry" />
        </mxCell>
        <mxCell id="4gp_iH8_tthGyEwq_ENl-139" value="id" style="text;strokeColor=#23445d;fillColor=#bac8d3;align=left;verticalAlign=middle;spacingLeft=4;spacingRight=4;overflow=hidden;points=[[0,0.5],[1,0.5]];portConstraint=eastwest;rotatable=0;whiteSpace=wrap;html=1;" vertex="1" parent="4gp_iH8_tthGyEwq_ENl-138">
          <mxGeometry width="160" height="30" as="geometry" />
        </mxCell>
        <mxCell id="4gp_iH8_tthGyEwq_ENl-140" value="&lt;span style=&quot;box-sizing: border-box;&quot;&gt;&lt;font style=&quot;font-size: 12px;&quot; face=&quot;Helvetica&quot;&gt;INTEGER&lt;/font&gt;&lt;/span&gt;" style="text;strokeColor=#23445d;fillColor=#bac8d3;align=left;verticalAlign=middle;spacingLeft=4;spacingRight=4;overflow=hidden;points=[[0,0.5],[1,0.5]];portConstraint=eastwest;rotatable=0;whiteSpace=wrap;html=1;" vertex="1" parent="4gp_iH8_tthGyEwq_ENl-138">
          <mxGeometry x="160" width="79.82" height="30" as="geometry" />
        </mxCell>
        <mxCell id="4gp_iH8_tthGyEwq_ENl-143" value="" style="group" vertex="1" connectable="0" parent="4gp_iH8_tthGyEwq_ENl-138">
          <mxGeometry x="0.17999999999994998" y="30" width="239.82" height="120" as="geometry" />
        </mxCell>
        <mxCell id="4gp_iH8_tthGyEwq_ENl-86" value="client_id" style="text;strokeColor=#23445d;fillColor=#E1D5E7;align=left;verticalAlign=middle;spacingLeft=4;spacingRight=4;overflow=hidden;points=[[0,0.5],[1,0.5]];portConstraint=eastwest;rotatable=0;whiteSpace=wrap;html=1;" vertex="1" parent="4gp_iH8_tthGyEwq_ENl-143">
          <mxGeometry width="160" height="30" as="geometry" />
        </mxCell>
        <mxCell id="4gp_iH8_tthGyEwq_ENl-87" value="INTEGER" style="text;strokeColor=#23445d;fillColor=#E1D5E7;align=left;verticalAlign=middle;spacingLeft=4;spacingRight=4;overflow=hidden;points=[[0,0.5],[1,0.5]];portConstraint=eastwest;rotatable=0;whiteSpace=wrap;html=1;" vertex="1" parent="4gp_iH8_tthGyEwq_ENl-143">
          <mxGeometry x="160" width="79.82" height="30" as="geometry" />
        </mxCell>
        <mxCell id="4gp_iH8_tthGyEwq_ENl-159" value="test_id" style="text;strokeColor=#23445d;fillColor=none;align=left;verticalAlign=middle;spacingLeft=4;spacingRight=4;overflow=hidden;points=[[0,0.5],[1,0.5]];portConstraint=eastwest;rotatable=0;whiteSpace=wrap;html=1;" vertex="1" parent="4gp_iH8_tthGyEwq_ENl-143">
          <mxGeometry x="-0.17999999999994998" y="30" width="160" height="30" as="geometry" />
        </mxCell>
        <mxCell id="4gp_iH8_tthGyEwq_ENl-160" value="INTEGER" style="text;strokeColor=#23445d;fillColor=none;align=left;verticalAlign=middle;spacingLeft=4;spacingRight=4;overflow=hidden;points=[[0,0.5],[1,0.5]];portConstraint=eastwest;rotatable=0;whiteSpace=wrap;html=1;" vertex="1" parent="4gp_iH8_tthGyEwq_ENl-143">
          <mxGeometry x="159.82000000000005" y="30" width="79.82" height="30" as="geometry" />
        </mxCell>
        <mxCell id="4gp_iH8_tthGyEwq_ENl-161" value="" style="group" vertex="1" connectable="0" parent="4gp_iH8_tthGyEwq_ENl-143">
          <mxGeometry y="60" width="239.82" height="60" as="geometry" />
        </mxCell>
        <mxCell id="4gp_iH8_tthGyEwq_ENl-162" value="date" style="text;strokeColor=#23445d;fillColor=none;align=left;verticalAlign=middle;spacingLeft=4;spacingRight=4;overflow=hidden;points=[[0,0.5],[1,0.5]];portConstraint=eastwest;rotatable=0;whiteSpace=wrap;html=1;" vertex="1" parent="4gp_iH8_tthGyEwq_ENl-161">
          <mxGeometry width="160" height="30" as="geometry" />
        </mxCell>
        <mxCell id="4gp_iH8_tthGyEwq_ENl-163" value="INTEGER" style="text;strokeColor=#23445d;fillColor=none;align=left;verticalAlign=middle;spacingLeft=4;spacingRight=4;overflow=hidden;points=[[0,0.5],[1,0.5]];portConstraint=eastwest;rotatable=0;whiteSpace=wrap;html=1;" vertex="1" parent="4gp_iH8_tthGyEwq_ENl-161">
          <mxGeometry x="160" width="79.82" height="30" as="geometry" />
        </mxCell>
        <mxCell id="4gp_iH8_tthGyEwq_ENl-164" value="result" style="text;strokeColor=#23445d;fillColor=none;align=left;verticalAlign=middle;spacingLeft=4;spacingRight=4;overflow=hidden;points=[[0,0.5],[1,0.5]];portConstraint=eastwest;rotatable=0;whiteSpace=wrap;html=1;" vertex="1" parent="4gp_iH8_tthGyEwq_ENl-161">
          <mxGeometry y="30" width="160" height="30" as="geometry" />
        </mxCell>
        <mxCell id="4gp_iH8_tthGyEwq_ENl-165" value="INTEGER" style="text;strokeColor=#23445d;fillColor=none;align=left;verticalAlign=middle;spacingLeft=4;spacingRight=4;overflow=hidden;points=[[0,0.5],[1,0.5]];portConstraint=eastwest;rotatable=0;whiteSpace=wrap;html=1;" vertex="1" parent="4gp_iH8_tthGyEwq_ENl-161">
          <mxGeometry x="160" y="30" width="79.82" height="30" as="geometry" />
        </mxCell>
        <mxCell id="4gp_iH8_tthGyEwq_ENl-166" value="" style="group" vertex="1" connectable="0" parent="1">
          <mxGeometry x="820.18" y="1620" width="239.82" height="30" as="geometry" />
        </mxCell>
        <mxCell id="4gp_iH8_tthGyEwq_ENl-152" value="id" style="text;strokeColor=#23445d;fillColor=none;align=left;verticalAlign=middle;spacingLeft=4;spacingRight=4;overflow=hidden;points=[[0,0.5],[1,0.5]];portConstraint=eastwest;rotatable=0;whiteSpace=wrap;html=1;" vertex="1" parent="4gp_iH8_tthGyEwq_ENl-166">
          <mxGeometry width="160" height="30" as="geometry" />
        </mxCell>
        <mxCell id="4gp_iH8_tthGyEwq_ENl-153" value="INTEGER" style="text;strokeColor=#23445d;fillColor=none;align=left;verticalAlign=middle;spacingLeft=4;spacingRight=4;overflow=hidden;points=[[0,0.5],[1,0.5]];portConstraint=eastwest;rotatable=0;whiteSpace=wrap;html=1;" vertex="1" parent="4gp_iH8_tthGyEwq_ENl-166">
          <mxGeometry x="160" width="79.82" height="30" as="geometry" />
        </mxCell>
        <mxCell id="4gp_iH8_tthGyEwq_ENl-167" value="Answers" style="swimlane;fontStyle=0;childLayout=stackLayout;horizontal=1;startSize=30;horizontalStack=0;resizeParent=1;resizeParentMax=0;resizeLast=0;collapsible=1;marginBottom=0;whiteSpace=wrap;html=1;" vertex="1" parent="1">
          <mxGeometry x="820.18" y="560" width="240" height="120" as="geometry" />
        </mxCell>
        <mxCell id="4gp_iH8_tthGyEwq_ENl-168" value="" style="group" vertex="1" connectable="0" parent="4gp_iH8_tthGyEwq_ENl-167">
          <mxGeometry y="30" width="240" height="90" as="geometry" />
        </mxCell>
        <mxCell id="4gp_iH8_tthGyEwq_ENl-169" value="id" style="text;strokeColor=#23445d;fillColor=#E1D5E7;align=left;verticalAlign=middle;spacingLeft=4;spacingRight=4;overflow=hidden;points=[[0,0.5],[1,0.5]];portConstraint=eastwest;rotatable=0;whiteSpace=wrap;html=1;" vertex="1" parent="4gp_iH8_tthGyEwq_ENl-168">
          <mxGeometry width="160" height="30" as="geometry" />
        </mxCell>
        <mxCell id="4gp_iH8_tthGyEwq_ENl-170" value="&lt;span style=&quot;box-sizing: border-box;&quot;&gt;&lt;font style=&quot;font-size: 12px;&quot; face=&quot;Helvetica&quot;&gt;INTEGER&lt;/font&gt;&lt;/span&gt;" style="text;strokeColor=#23445d;fillColor=#E1D5E7;align=left;verticalAlign=middle;spacingLeft=4;spacingRight=4;overflow=hidden;points=[[0,0.5],[1,0.5]];portConstraint=eastwest;rotatable=0;whiteSpace=wrap;html=1;" vertex="1" parent="4gp_iH8_tthGyEwq_ENl-168">
          <mxGeometry x="160" width="79.82" height="30" as="geometry" />
        </mxCell>
        <mxCell id="4gp_iH8_tthGyEwq_ENl-171" value="" style="group" vertex="1" connectable="0" parent="4gp_iH8_tthGyEwq_ENl-168">
          <mxGeometry y="30" width="239.81999999999994" height="60" as="geometry" />
        </mxCell>
        <mxCell id="4gp_iH8_tthGyEwq_ENl-172" value="question" style="text;strokeColor=#23445d;fillColor=none;align=left;verticalAlign=middle;spacingLeft=4;spacingRight=4;overflow=hidden;points=[[0,0.5],[1,0.5]];portConstraint=eastwest;rotatable=0;whiteSpace=wrap;html=1;" vertex="1" parent="4gp_iH8_tthGyEwq_ENl-171">
          <mxGeometry width="160" height="30" as="geometry" />
        </mxCell>
        <mxCell id="4gp_iH8_tthGyEwq_ENl-173" value="INTEGER" style="text;strokeColor=#23445d;fillColor=none;align=left;verticalAlign=middle;spacingLeft=4;spacingRight=4;overflow=hidden;points=[[0,0.5],[1,0.5]];portConstraint=eastwest;rotatable=0;whiteSpace=wrap;html=1;" vertex="1" parent="4gp_iH8_tthGyEwq_ENl-171">
          <mxGeometry x="160" width="79.82" height="30" as="geometry" />
        </mxCell>
        <mxCell id="4gp_iH8_tthGyEwq_ENl-174" value="" style="group" vertex="1" connectable="0" parent="4gp_iH8_tthGyEwq_ENl-171">
          <mxGeometry y="30" width="239.81999999999994" height="30" as="geometry" />
        </mxCell>
        <mxCell id="4gp_iH8_tthGyEwq_ENl-175" value="answers" style="text;strokeColor=#23445d;fillColor=none;align=left;verticalAlign=middle;spacingLeft=4;spacingRight=4;overflow=hidden;points=[[0,0.5],[1,0.5]];portConstraint=eastwest;rotatable=0;whiteSpace=wrap;html=1;" vertex="1" parent="4gp_iH8_tthGyEwq_ENl-174">
          <mxGeometry width="160" height="30" as="geometry" />
        </mxCell>
        <mxCell id="4gp_iH8_tthGyEwq_ENl-176" value="TEXT" style="text;strokeColor=#23445d;fillColor=none;align=left;verticalAlign=middle;spacingLeft=4;spacingRight=4;overflow=hidden;points=[[0,0.5],[1,0.5]];portConstraint=eastwest;rotatable=0;whiteSpace=wrap;html=1;" vertex="1" parent="4gp_iH8_tthGyEwq_ENl-174">
          <mxGeometry x="160" width="79.82" height="30" as="geometry" />
        </mxCell>
        <mxCell id="4gp_iH8_tthGyEwq_ENl-178" value="" style="edgeStyle=entityRelationEdgeStyle;fontSize=12;html=1;endArrow=ERmany;rounded=1;endFill=0;startArrow=ERone;startFill=0;entryX=0;entryY=0.5;entryDx=0;entryDy=0;exitX=1;exitY=0.5;exitDx=0;exitDy=0;curved=0;strokeWidth=2;targetPerimeterSpacing=0;endSize=8;startSize=8;strokeColor=default;" edge="1" parent="1" source="5imH1k4Vq9nAhO7qKi-u-34" target="4gp_iH8_tthGyEwq_ENl-49">
          <mxGeometry width="100" height="100" relative="1" as="geometry">
            <mxPoint x="329.99999999999994" y="390" as="sourcePoint" />
            <mxPoint x="480.18000000000006" y="310" as="targetPoint" />
            <Array as="points">
              <mxPoint x="410.18000000000006" y="435" />
            </Array>
          </mxGeometry>
        </mxCell>
        <mxCell id="4gp_iH8_tthGyEwq_ENl-179" value="" style="edgeStyle=entityRelationEdgeStyle;fontSize=12;html=1;endArrow=ERmany;rounded=1;endFill=0;startArrow=ERone;startFill=0;entryX=0;entryY=0.5;entryDx=0;entryDy=0;curved=0;strokeWidth=2;targetPerimeterSpacing=0;endSize=8;startSize=8;exitX=1;exitY=0.5;exitDx=0;exitDy=0;" edge="1" parent="1" source="5imH1k4Vq9nAhO7qKi-u-34" target="4gp_iH8_tthGyEwq_ENl-86">
          <mxGeometry width="100" height="100" relative="1" as="geometry">
            <mxPoint x="400" y="500" as="sourcePoint" />
            <mxPoint x="450" y="595" as="targetPoint" />
            <Array as="points">
              <mxPoint x="380" y="720" />
              <mxPoint x="380" y="470" />
              <mxPoint x="410" y="570" />
              <mxPoint x="400" y="580" />
              <mxPoint x="380" y="500" />
            </Array>
          </mxGeometry>
        </mxCell>
        <mxCell id="4gp_iH8_tthGyEwq_ENl-180" value="" style="edgeStyle=entityRelationEdgeStyle;fontSize=12;html=1;endArrow=ERmany;rounded=1;endFill=0;startArrow=ERone;startFill=0;entryX=1;entryY=0.5;entryDx=0;entryDy=0;exitX=0;exitY=0.5;exitDx=0;exitDy=0;curved=0;strokeWidth=2;targetPerimeterSpacing=0;endSize=8;startSize=8;strokeColor=default;" edge="1" parent="1" source="4gp_iH8_tthGyEwq_ENl-90" target="4gp_iH8_tthGyEwq_ENl-75">
          <mxGeometry width="100" height="100" relative="1" as="geometry">
            <mxPoint x="800" y="290" as="sourcePoint" />
            <mxPoint x="950" y="210" as="targetPoint" />
            <Array as="points">
              <mxPoint x="870.1800000000001" y="370" />
            </Array>
          </mxGeometry>
        </mxCell>
        <mxCell id="4gp_iH8_tthGyEwq_ENl-181" value="" style="edgeStyle=entityRelationEdgeStyle;fontSize=12;html=1;endArrow=ERmany;rounded=1;endFill=0;startArrow=ERone;startFill=0;exitX=0;exitY=0.5;exitDx=0;exitDy=0;curved=0;strokeWidth=2;targetPerimeterSpacing=0;endSize=8;startSize=8;strokeColor=default;entryX=1;entryY=0.5;entryDx=0;entryDy=0;" edge="1" parent="1" source="4gp_iH8_tthGyEwq_ENl-90" target="4gp_iH8_tthGyEwq_ENl-160">
          <mxGeometry width="100" height="100" relative="1" as="geometry">
            <mxPoint x="850" y="440" as="sourcePoint" />
            <mxPoint x="810" y="610" as="targetPoint" />
            <Array as="points">
              <mxPoint x="880.1800000000001" y="380" />
            </Array>
          </mxGeometry>
        </mxCell>
        <mxCell id="4gp_iH8_tthGyEwq_ENl-183" value="" style="edgeStyle=entityRelationEdgeStyle;fontSize=12;html=1;endArrow=ERmany;rounded=1;endFill=0;startArrow=ERone;startFill=0;exitX=1;exitY=0.5;exitDx=0;exitDy=0;curved=0;strokeWidth=2;targetPerimeterSpacing=0;endSize=8;startSize=8;strokeColor=#000000;entryX=0;entryY=0.5;entryDx=0;entryDy=0;jumpStyle=none;jumpSize=6;" edge="1" parent="1" source="4gp_iH8_tthGyEwq_ENl-140" target="4gp_iH8_tthGyEwq_ENl-169">
          <mxGeometry width="100" height="100" relative="1" as="geometry">
            <mxPoint x="730" y="710" as="sourcePoint" />
            <mxPoint x="600" y="890" as="targetPoint" />
            <Array as="points">
              <mxPoint x="770.1800000000001" y="660" />
            </Array>
          </mxGeometry>
        </mxCell>
        <mxCell id="4gp_iH8_tthGyEwq_ENl-184" value="" style="group" vertex="1" connectable="0" parent="1">
          <mxGeometry x="820" y="1530" width="239.81999999999994" height="60" as="geometry" />
        </mxCell>
        <mxCell id="4gp_iH8_tthGyEwq_ENl-83" value="text" style="text;strokeColor=#23445d;fillColor=none;align=left;verticalAlign=middle;spacingLeft=4;spacingRight=4;overflow=hidden;points=[[0,0.5],[1,0.5]];portConstraint=eastwest;rotatable=0;whiteSpace=wrap;html=1;container=0;" vertex="1" parent="4gp_iH8_tthGyEwq_ENl-184">
          <mxGeometry width="160" height="30" as="geometry" />
        </mxCell>
        <mxCell id="4gp_iH8_tthGyEwq_ENl-84" value="TEXT" style="text;strokeColor=#23445d;fillColor=none;align=left;verticalAlign=middle;spacingLeft=4;spacingRight=4;overflow=hidden;points=[[0,0.5],[1,0.5]];portConstraint=eastwest;rotatable=0;whiteSpace=wrap;html=1;container=0;" vertex="1" parent="4gp_iH8_tthGyEwq_ENl-184">
          <mxGeometry x="160" width="79.82" height="30" as="geometry" />
        </mxCell>
        <mxCell id="4gp_iH8_tthGyEwq_ENl-141" value="data" style="text;strokeColor=#23445d;fillColor=none;align=left;verticalAlign=middle;spacingLeft=4;spacingRight=4;overflow=hidden;points=[[0,0.5],[1,0.5]];portConstraint=eastwest;rotatable=0;whiteSpace=wrap;html=1;container=0;" vertex="1" parent="4gp_iH8_tthGyEwq_ENl-184">
          <mxGeometry y="30" width="160" height="30" as="geometry" />
        </mxCell>
        <mxCell id="4gp_iH8_tthGyEwq_ENl-142" value="TEXT" style="text;strokeColor=#23445d;fillColor=none;align=left;verticalAlign=middle;spacingLeft=4;spacingRight=4;overflow=hidden;points=[[0,0.5],[1,0.5]];portConstraint=eastwest;rotatable=0;whiteSpace=wrap;html=1;container=0;" vertex="1" parent="4gp_iH8_tthGyEwq_ENl-184">
          <mxGeometry x="160" y="30" width="79.82" height="30" as="geometry" />
        </mxCell>
        <mxCell id="4gp_iH8_tthGyEwq_ENl-185" value="Control" style="swimlane;fontStyle=0;childLayout=stackLayout;horizontal=1;startSize=30;horizontalStack=0;resizeParent=1;resizeParentMax=0;resizeLast=0;collapsible=1;marginBottom=0;whiteSpace=wrap;html=1;" vertex="1" parent="1">
          <mxGeometry x="80" y="60" width="240" height="90" as="geometry" />
        </mxCell>
        <mxCell id="4gp_iH8_tthGyEwq_ENl-186" value="" style="group" vertex="1" connectable="0" parent="4gp_iH8_tthGyEwq_ENl-185">
          <mxGeometry y="30" width="240" height="60" as="geometry" />
        </mxCell>
        <mxCell id="4gp_iH8_tthGyEwq_ENl-187" value="phrase" style="text;strokeColor=#23445d;fillColor=none;align=left;verticalAlign=middle;spacingLeft=4;spacingRight=4;overflow=hidden;points=[[0,0.5],[1,0.5]];portConstraint=eastwest;rotatable=0;whiteSpace=wrap;html=1;" vertex="1" parent="4gp_iH8_tthGyEwq_ENl-186">
          <mxGeometry width="160" height="30" as="geometry" />
        </mxCell>
        <mxCell id="4gp_iH8_tthGyEwq_ENl-188" value="&lt;span style=&quot;box-sizing: border-box;&quot;&gt;&lt;font style=&quot;font-size: 12px;&quot; face=&quot;Helvetica&quot;&gt;TEXT&lt;/font&gt;&lt;/span&gt;" style="text;strokeColor=#23445d;fillColor=none;align=left;verticalAlign=middle;spacingLeft=4;spacingRight=4;overflow=hidden;points=[[0,0.5],[1,0.5]];portConstraint=eastwest;rotatable=0;whiteSpace=wrap;html=1;" vertex="1" parent="4gp_iH8_tthGyEwq_ENl-186">
          <mxGeometry x="160" width="79.82" height="30" as="geometry" />
        </mxCell>
        <mxCell id="4gp_iH8_tthGyEwq_ENl-189" value="" style="group" vertex="1" connectable="0" parent="4gp_iH8_tthGyEwq_ENl-186">
          <mxGeometry y="30" width="239.82" height="30" as="geometry" />
        </mxCell>
        <mxCell id="4gp_iH8_tthGyEwq_ENl-190" value="control" style="text;strokeColor=#23445d;fillColor=none;align=left;verticalAlign=middle;spacingLeft=4;spacingRight=4;overflow=hidden;points=[[0,0.5],[1,0.5]];portConstraint=eastwest;rotatable=0;whiteSpace=wrap;html=1;" vertex="1" parent="4gp_iH8_tthGyEwq_ENl-189">
          <mxGeometry width="160" height="30" as="geometry" />
        </mxCell>
        <mxCell id="4gp_iH8_tthGyEwq_ENl-191" value="TEXT" style="text;strokeColor=#23445d;fillColor=none;align=left;verticalAlign=middle;spacingLeft=4;spacingRight=4;overflow=hidden;points=[[0,0.5],[1,0.5]];portConstraint=eastwest;rotatable=0;whiteSpace=wrap;html=1;" vertex="1" parent="4gp_iH8_tthGyEwq_ENl-189">
          <mxGeometry x="160" width="79.82" height="30" as="geometry" />
        </mxCell>
      </root>
    </mxGraphModel>
  </diagram>
</mxfile>
